<?xml version="1.0" encoding="utf-8"?>
<!-- Generator: Adobe Illustrator 24.3.0, SVG Export Plug-In . SVG Version: 6.00 Build 0)  -->
<svg version="1.1" id="Calque_1" xmlns="http://www.w3.org/2000/svg" xmlns:xlink="http://www.w3.org/1999/xlink" x="0px" y="0px"
	 viewBox="0 0 354.3 56.7" style="enable-background:new 0 0 354.3 56.7;" xml:space="preserve">
<style type="text/css">
	.st0{fill:#FFFFFF;}
	.st1{fill:#55A0AD;}
	.st2{fill:#F3E623;}
</style>
<g>
	<path class="st0" d="M30.3,26L8.6,35.5l21.7,10v8.6L0,39.1v-6.9l30.3-14.7V26z"/>
	<path class="st1" d="M39,54.2L60,0.2l7.1,2.7L46,56.8L39,54.2z"/>
	<path class="st2" d="M75.1,2.4h19.2c5.2,0,9,1.1,11.6,3.3c2.6,2.2,3.8,5.6,3.8,10.4c0,3.1-0.5,5.6-1.4,7.4c-1,1.8-2.5,3.3-4.5,4.4
		c4.8,1.9,7.2,6,7.2,12.2c0,9.9-5.4,14.9-16.1,14.9H75.1V2.4z M93.9,9.7H83.3v15h10.8c4.8,0,7.2-2.6,7.2-7.7
		C101.4,12.2,98.9,9.7,93.9,9.7z M94.3,32h-11v15.6h11.1c2.7,0,4.7-0.6,6.1-1.8c1.4-1.2,2-3.2,2-6.1c0-2.9-0.8-4.9-2.4-6
		C98.6,32.6,96.7,32,94.3,32z"/>
	<path class="st2" d="M145.6,48l2.1-0.2l0.1,6.2c-5.6,1.2-10.6,1.8-14.9,1.8c-5.5,0-9.4-1.6-11.8-4.7c-2.4-3.1-3.6-8.1-3.6-15
		c0-13.6,5.3-20.4,16-20.4c10.3,0,15.5,5.9,15.5,17.6l-0.5,6h-22.9c0,3.2,0.7,5.5,2,7c1.3,1.5,3.7,2.2,7.2,2.2
		C138.3,48.5,141.9,48.3,145.6,48z M141.2,32.8c0-3.8-0.6-6.4-1.7-7.9c-1.2-1.5-3.1-2.3-5.9-2.3c-2.8,0-4.8,0.8-6,2.4
		c-1.3,1.6-1.9,4.2-2,7.8H141.2z"/>
	<path class="st0" d="M176.3,38.6H166v16.3h-8.2V2.4h18.5c11.5,0,17.2,5.9,17.2,17.6c0,6-1.4,10.6-4.3,13.8
		C186.3,37,182,38.6,176.3,38.6z M166,31.2h10.3c5.9,0,8.9-3.7,8.9-11.2c0-3.6-0.7-6.2-2.1-7.8c-1.4-1.6-3.7-2.5-6.7-2.5H166V31.2z"
		/>
	<path class="st0" d="M200.4,10V1.2h8V10H200.4z M200.4,54.9V16.6h8v38.4H200.4z"/>
	<path class="st0" d="M216.3,24v-7.4h27.4V24L226,47.5h17.7v7.4h-27.4v-7.4L234.1,24H216.3z"/>
	<path class="st0" d="M249.8,24v-7.4h27.4V24l-17.7,23.5h17.7v7.4h-27.4v-7.4L267.6,24H249.8z"/>
	<path class="st0" d="M312.5,28.4v17.5c0,1.1,0.3,2,0.8,2.5c0.5,0.5,1.3,0.9,2.4,1l-0.2,6.4c-4.2,0-7.5-0.9-9.8-2.8
		c-3.9,1.9-7.9,2.8-11.9,2.8c-7.3,0-11-4.1-11-12.2c0-3.9,1-6.7,3-8.4c2-1.7,5.1-2.8,9.2-3.1l9.5-0.8v-2.8c0-2-0.4-3.5-1.3-4.3
		c-0.9-0.8-2.1-1.2-3.8-1.2c-3.1,0-7.1,0.2-11.8,0.6l-2.4,0.2l-0.3-5.9c5.4-1.3,10.3-2,14.8-2s7.7,1,9.7,3
		C311.5,20.8,312.5,24,312.5,28.4z M296,37.9c-3.4,0.3-5.1,2.2-5.1,5.8s1.5,5.3,4.5,5.3c2.5,0,5.1-0.4,7.8-1.2l1.3-0.5V37.1
		L296,37.9z"/>
	<path class="st0" d="M345.8,35.5L324.1,26v-8.5l30.3,14.7v6.9l-30.3,15v-8.6L345.8,35.5z"/>
</g>
</svg>
